<svg xmlns="http://www.w3.org/2000/svg" viewBox="-.424 -.244 90.652 90.652">
  <circle cx="44.902" cy="45.082001" r="45.326" fill="#dd4814"/>
  <path fill="#fff" d="M14.082023 39.029c-3.344 0-6.0530003 2.709-6.0530003 6.053 0 3.342 2.7090003 6.051 6.0530003 6.051 3.342 0 6.051-2.709 6.051-6.051-.001-3.344-2.71-6.053-6.051-6.053zm43.207 27.504c-2.895 1.672-3.887 5.371-2.215 8.264 1.67 2.895 5.369 3.887 8.264 2.215 2.895-1.67 3.887-5.369 2.215-8.264-1.671-2.892-5.372-3.885-8.264-2.215zm-30.063-21.451c0-5.98 2.971-11.264 7.516-14.463l-4.424-7.41c-5.295 3.539-9.234 8.947-10.871 15.281 1.91 1.559 3.133 3.932 3.133 6.592 0 2.658-1.223 5.031-3.133 6.59 1.635 6.336 5.574 11.744 10.871 15.283l4.424-7.412c-4.545-3.197-7.516-8.48-7.516-14.461zm17.676-17.678c9.234 0 16.811 7.08 17.605 16.109l8.623-.127c-.424-6.666-3.336-12.65-7.811-17.051-2.301.869-4.959.736-7.256-.588-2.301-1.328-3.744-3.568-4.139-6-2.236-.617-4.59-.955-7.023-.955-4.184 0-8.139.982-11.65 2.721l4.205 7.535c2.262-1.052 4.786-1.644 7.446-1.644zm0 35.354c-2.66 0-5.184-.592-7.445-1.645l-4.205 7.535c3.512 1.74 7.467 2.723 11.65 2.723 2.434 0 4.787-.338 7.023-.957.395-2.432 1.838-4.67 4.139-6 2.299-1.326 4.955-1.457 7.256-.588 4.475-4.4 7.387-10.385 7.811-17.051l-8.625-.127c-.794 9.032-8.37 16.11-17.604 16.11zm12.385-39.131c2.895 1.672 6.594.682 8.264-2.213 1.672-2.895.682-6.594-2.213-8.266-2.895-1.67-6.594-.678-8.266 2.217-1.67 2.893-.678 6.592 2.215 8.262z"/>
</svg>
